HIERARCHY
ROOT Hip
{
    OFFSET 0.0 0.0 0.0
    CHANNELS 6 Xposition Yposition Zposition Zrotation Xrotation Yrotation
    JOINT RightHip
    {
        OFFSET -0.1128663718700409 0.0 0.0
        CHANNELS 3 Zrotation Xrotation Yrotation
        JOINT RightKnee
        {
            OFFSET 0.0 0.0 -0.44123852252960205
            CHANNELS 3 Zrotation Xrotation Yrotation
            JOINT RightAnkle
            {
                OFFSET 0.0 0.0 -0.4431934356689453
                CHANNELS 3 Zrotation Xrotation Yrotation
                End Site
                {
                    OFFSET 0.0 -0.17727738618850708 0.0
                }
            }
        }
    }
    JOINT LeftHip
    {
        OFFSET 0.1128663718700409 0.0 0.0
        CHANNELS 3 Zrotation Xrotation Yrotation
        JOINT LeftKnee
        {
            OFFSET 0.0 0.0 -0.44123852252960205
            CHANNELS 3 Zrotation Xrotation Yrotation
            JOINT LeftAnkle
            {
                OFFSET 0.0 0.0 -0.4431934356689453
                CHANNELS 3 Zrotation Xrotation Yrotation
                End Site
                {
                    OFFSET 0.0 -0.17727738618850708 0.0
                }
            }
        }
    }
    JOINT Spine
    {
        OFFSET 0.0 0.0 0.07670905441045761
        CHANNELS 3 Zrotation Xrotation Yrotation
        JOINT Thorax
        {
            OFFSET 0.0 0.0 0.07670912891626358
            CHANNELS 3 Zrotation Xrotation Yrotation
            JOINT Neck
            {
                OFFSET 0.0 0.0 0.07670905441045761
                CHANNELS 3 Zrotation Xrotation Yrotation
                End Site
                {
                    OFFSET 0.0 0.0 0.030683621764183044
                }
            }
            JOINT LeftShoulder
            {
                OFFSET 0.34057456254959106 0.0 0.0
                CHANNELS 3 Zrotation Xrotation Yrotation
                JOINT LeftElbow
                {
                    OFFSET 0.2322695255279541 0.0 0.0
                    CHANNELS 3 Zrotation Xrotation Yrotation
                    JOINT LeftWrist
                    {
                        OFFSET 0.21240948140621185 0.0 0.0
                        CHANNELS 3 Zrotation Xrotation Yrotation
                        End Site
                        {
                            OFFSET 0.08496379107236862 0.0 0.0
                        }
                    }
                }
            }
            JOINT RightShoulder
            {
                OFFSET -0.34057456254959106 0.0 0.0
                CHANNELS 3 Zrotation Xrotation Yrotation
                JOINT RightElbow
                {
                    OFFSET -0.2322695255279541 0.0 0.0
                    CHANNELS 3 Zrotation Xrotation Yrotation
                    JOINT RightWrist
                    {
                        OFFSET -0.21240948140621185 0.0 0.0
                        CHANNELS 3 Zrotation Xrotation Yrotation
                        End Site
                        {
                            OFFSET -0.08496379107236862 0.0 0.0
                        }
                    }
                }
            }
        }
    }
}
MOTION
Frames: 7
Frame Time: 0.03333333333333333
-0.19950294494628906 0.1417934000492096 4.787260055541992 152.40261859168749 41.1913111364188 -139.75335808548581 -10.087987292445879 -75.58242728666782 0.08457452841179253 20.483405930258293 63.60800846284398 -22.307283795596376 -1.5902773407317584e-15 0.0 0.0 10.029374962088037 -77.09053647961633 4.057144909775773 -12.087237987523109 65.01819745481696 6.606426796054228 1.5902773407317588e-15 4.4139062980501586e-32 3.1805546814635176e-15 5.34993053275896e-07 9.079598344877667e-06 1.0132790284538565e-05 -179.505355692849 -2.7732237180360034e-06 2.8656095511888775e-06 -18.810113174503332 -5.0299948412875874 3.88389765094458e-06 -90.0671603012871 3.0592786500732627 -85.0940107134875 -171.30027831916675 -9.787033366657845e-06 9.680986794452624e-07 5.565970692561154e-15 0.0 0.0 -177.19214993969499 -40.87339671780267 -149.4059394227996 38.38576586954674 -2.2711724992578214e-06 1.6258529355044467e-06 0.0 0.0 0.0
-0.20267854630947113 0.1500956416130066 4.80466365814209 152.8404492718549 40.78123266917103 -141.01721400181233 -2.4733782984457275 -78.89436939620299 8.267260758303477 23.245300815603706 66.99441088850816 -25.45054277601512 -1.5902773407317582e-15 -3.975693351829395e-16 -3.1805546814635164e-15 16.343384676079594 -79.85893793248557 8.846110028354921 -17.486316098183956 69.42608941173305 14.327519444437831 0.0 5.9635400277440935e-15 0.0 -3.0341830747442873e-06 0.00024301390229003526 -0.0001640925951276061 179.0364472858176 3.6914670224221648e-06 -3.1987135851464453e-07 -17.01721893460173 -5.183497599481547 -7.938750554093379e-05 -90.18387478752956 4.192062608351747 -84.59109128713224 -171.2359417747127 6.802819129187691e-06 -6.638940327510047e-07 -3.975693351829394e-16 -6.3611093629270335e-15 3.1805546814635168e-15 -176.1280798315489 -41.74253539451328 -146.0991477495991 35.81431606181073 1.6053631005222935e-06 -3.572958310718699e-06 -1.590277340731758e-15 0.0 0.0
-0.200277641415596 0.14999693632125854 4.831416606903076 153.58271817654426 42.176934605575624 -142.19676899772057 3.65726017046704 -80.82631387861835 12.937343224249007 20.309866308755144 68.07044090996212 -20.18362496875114 1.5902773407317588e-15 0.0 0.0 22.86246768442289 -79.7853371490994 11.904202882585905 -28.63575457275999 69.83589192592976 27.003485437225727 -3.1805546814635168e-15 8.827812596100317e-32 -3.1805546814635168e-15 1.0438744783140392e-05 -0.0002395702105368789 0.00016159862328095825 179.3370387997344 -7.414026679243903e-07 -2.8431236850381984e-08 -12.720398073377066 -5.646713532936884 0.00010173563360325203 -90.20672395577972 4.013978262591932 -84.56462040595216 -171.09402115390165 1.7191893223720427e-05 -3.4591083449313286e-06 7.553817368475852e-15 -4.1932109831476505e-31 -6.3611093629270335e-15 -172.60563562267916 -40.702358528015736 -137.42421624333815 34.793355100265 -5.4795094394022295e-06 3.0116309933900275e-06 -1.7655625192200634e-31 -6.3611093629270335e-15 -3.1805546814635168e-15
-0.20090514421463013 0.1449594795703888 4.87220573425293 154.86364524772145 43.20761854378031 -144.85516988229 17.94585878389924 -83.67506900588123 25.482925134252874 17.153759558992697 68.3210347870041 -13.363689335644946 1.5902773407317584e-15 3.975693351829396e-16 -5.517382872562698e-33 33.110538568035935 -78.70324233668029 19.37956537394626 -36.559712083432274 68.05418731203775 35.80876589016541 -3.1805546814635164e-15 -3.9756933518293955e-16 -1.1034765745125397e-32 -1.625303232274604e-05 0.0002487228219176281 -0.00015398561356146057 178.48505307089576 -3.6638016443540915e-06 -2.7247870433939894e-08 -3.800422798053886 -5.983061114221022 -0.00011512953377401182 -90.05803159028913 3.2900045186094897 -84.75865967059288 -170.93100348291065 3.6688020753615716e-05 4.1176788516025947e-07 3.1805546814635168e-15 -3.1805546814635168e-15 8.827812596100317e-32 -166.42452179168558 -38.41090450177661 -124.8378014306082 35.727649446684545 3.4919424639544557e-06 2.339046504540115e-06 0.0 0.0 1.5902773407317582e-15
-0.2024577409029007 0.14863193035125732 4.888683319091797 157.09620436561946 43.893162171006665 -149.5742588465323 42.4787516778476 -85.68987277722664 48.092846793579724 11.50700222699282 66.01501637416354 -4.632686469605256 3.1805546814635168e-15 6.3611093629270335e-15 -1.7655625192200634e-31 35.634858836645485 -75.64445040245576 20.212345383087424 -36.82142158539663 64.68079379127256 38.42482778112441 -1.5902773407317584e-15 3.975693351829396e-16 5.517382872562698e-33 2.250860583192276e-05 -0.00024756252226078735 0.0001329722708266387 177.77017222545285 2.6444600445277974e-06 7.499162913030906e-07 1.0170290770545891 -6.460121207771336 0.0001301713680492789 -89.70129307270048 1.5513162507218272 -85.17497402385592 -170.8473940265233 -1.1788612644430895e-05 1.3156022377466503e-06 -5.5659706925611536e-15 3.1805546814635164e-15 1.5448672043175555e-31 -164.10198046124745 -31.16538876685372 -114.01641496434348 38.04474158384708 -3.740686261182679e-06 -5.653443113013881e-07 0.0 0.0 -6.3611093629270335e-15
-0.2003089338541031 0.1631355583667755 4.893500804901123 161.04853147257904 44.39584203635137 -157.59964889649973 117.66044087587115 -86.15162777279167 120.8197761287714 6.170884845483755 64.71592744082513 2.5440672710488306 -3.1805546814635164e-15 6.162324695335563e-15 1.7103886904944364e-31 38.3239367304351 -73.2581547243898 22.41066146632927 -38.38243611444221 64.03201245439404 42.782288289222905 0.0 0.0 0.0 3.16694729463608e-05 -0.0002559168996357165 9.815590706965718e-05 179.0631697653559 -5.224613999059696e-07 -1.1983293005455174e-06 4.670519558339955 -7.466387060792114 0.00011820251376477422 -89.34719699819318 0.060866187021619 -85.64833878316679 -170.91306229822266 -5.666271913664944e-06 -1.9881799935952656e-06 -8.746525374024672e-15 3.1805546814635176e-15 2.427648463927587e-31 -174.03788772136002 -21.707946516769848 -108.74163328200281 36.769550574208445 -4.110463648990425e-06 1.5350623924222778e-07 3.1805546814635168e-15 0.0 0.0
-0.1918678730726242 0.17806968092918396 4.888438701629639 163.21474488970105 46.02659965498624 -163.78505921092344 138.69326547277598 -83.64840920325459 140.4441860153838 3.610415632293304 64.13461026196724 5.2835113467803945 -1.5902773407317584e-15 -6.4605016967227685e-15 -8.965747167914385e-32 33.42922579894874 -69.53359302805514 18.817306673008396 -40.831708025549105 66.08029319368454 47.37765659497158 1.5902773407317584e-15 0.0 0.0 3.7661216558491724e-05 -0.0002652204373707414 7.15911486955634e-05 179.63348803403866 4.127501474176899e-06 -3.2410020512451337e-07 6.808115004168959 -8.307205726560404 0.00010226570226548673 -89.29374735748067 -1.4622499778254012 -86.04615732339325 -170.971650378945 1.0916807963460676e-05 -3.198514572570746e-06 -3.975693351829395e-15 -1.1034765745125397e-31 3.1805546814635164e-15 169.5093398878519 -16.928608506741675 -105.3125673819302 34.14132116878581 -6.260765287064145e-07 2.141585985401009e-06 0.0 0.0 9.54166404439055e-15
